<mxfile host="65bd71144e">
    <diagram id="sy53yYB4X2xb03WpH7nr" name="Page-1">
        <mxGraphModel dx="1904" dy="1728" grid="0" gridSize="10" guides="1" tooltips="1" connect="1" arrows="1" fold="1" page="1" pageScale="1" pageWidth="850" pageHeight="1100" math="0" shadow="0">
            <root>
                <mxCell id="0"/>
                <mxCell id="1" parent="0"/>
                <mxCell id="59" value="apprenant" style="shape=table;startSize=30;container=1;collapsible=0;childLayout=tableLayout;fontFamily=Helvetica;fontSize=12;fontColor=#ffffff;fillColor=#0050ef;strokeColor=#001DBC;" parent="1" vertex="1">
                    <mxGeometry x="274" y="35" width="157.5911102294922" height="550" as="geometry"/>
                </mxCell>
                <mxCell id="60" value="" style="shape=partialRectangle;collapsible=0;dropTarget=0;pointerEvents=0;fillColor=none;top=0;left=0;bottom=0;right=0;points=[[0,0.5],[1,0.5]];portConstraint=eastwest;fontFamily=Helvetica;fontSize=12;fontColor=default;" parent="59" vertex="1">
                    <mxGeometry y="30" width="157.5911102294922" height="40" as="geometry"/>
                </mxCell>
                <mxCell id="61" value="id" style="shape=partialRectangle;html=1;whiteSpace=wrap;connectable=0;overflow=hidden;fillColor=#e51400;top=0;left=0;bottom=0;right=0;pointerEvents=1;fontFamily=Helvetica;fontSize=12;fontColor=#ffffff;strokeColor=#B20000;" parent="60" vertex="1">
                    <mxGeometry width="158" height="40" as="geometry">
                        <mxRectangle width="158" height="40" as="alternateBounds"/>
                    </mxGeometry>
                </mxCell>
                <mxCell id="87" value="" style="shape=partialRectangle;collapsible=0;dropTarget=0;pointerEvents=0;fillColor=none;top=0;left=0;bottom=0;right=0;points=[[0,0.5],[1,0.5]];portConstraint=eastwest;fontFamily=Helvetica;fontSize=12;fontColor=default;" parent="59" vertex="1">
                    <mxGeometry y="70" width="157.5911102294922" height="40" as="geometry"/>
                </mxCell>
                <mxCell id="88" value="uuid" style="shape=partialRectangle;html=1;whiteSpace=wrap;connectable=0;overflow=hidden;fillColor=none;top=0;left=0;bottom=0;right=0;pointerEvents=1;fontFamily=Helvetica;fontSize=12;fontColor=default;" parent="87" vertex="1">
                    <mxGeometry width="158" height="40" as="geometry">
                        <mxRectangle width="158" height="40" as="alternateBounds"/>
                    </mxGeometry>
                </mxCell>
                <mxCell id="62" value="" style="shape=partialRectangle;collapsible=0;dropTarget=0;pointerEvents=0;fillColor=none;top=0;left=0;bottom=0;right=0;points=[[0,0.5],[1,0.5]];portConstraint=eastwest;fontFamily=Helvetica;fontSize=12;fontColor=default;" parent="59" vertex="1">
                    <mxGeometry y="110" width="157.5911102294922" height="40" as="geometry"/>
                </mxCell>
                <mxCell id="63" value="nom" style="shape=partialRectangle;html=1;whiteSpace=wrap;connectable=0;overflow=hidden;fillColor=none;top=0;left=0;bottom=0;right=0;pointerEvents=1;fontFamily=Helvetica;fontSize=12;fontColor=default;" parent="62" vertex="1">
                    <mxGeometry width="158" height="40" as="geometry">
                        <mxRectangle width="158" height="40" as="alternateBounds"/>
                    </mxGeometry>
                </mxCell>
                <mxCell id="64" value="" style="shape=partialRectangle;collapsible=0;dropTarget=0;pointerEvents=0;fillColor=none;top=0;left=0;bottom=0;right=0;points=[[0,0.5],[1,0.5]];portConstraint=eastwest;fontFamily=Helvetica;fontSize=12;fontColor=default;" parent="59" vertex="1">
                    <mxGeometry y="150" width="157.5911102294922" height="40" as="geometry"/>
                </mxCell>
                <mxCell id="65" value="prenom" style="shape=partialRectangle;html=1;whiteSpace=wrap;connectable=0;overflow=hidden;fillColor=none;top=0;left=0;bottom=0;right=0;pointerEvents=1;fontFamily=Helvetica;fontSize=12;fontColor=default;" parent="64" vertex="1">
                    <mxGeometry width="158" height="40" as="geometry">
                        <mxRectangle width="158" height="40" as="alternateBounds"/>
                    </mxGeometry>
                </mxCell>
                <mxCell id="109" value="" style="shape=partialRectangle;collapsible=0;dropTarget=0;pointerEvents=0;fillColor=none;top=0;left=0;bottom=0;right=0;points=[[0,0.5],[1,0.5]];portConstraint=eastwest;fontFamily=Helvetica;fontSize=12;fontColor=default;" parent="59" vertex="1">
                    <mxGeometry y="190" width="157.5911102294922" height="40" as="geometry"/>
                </mxCell>
                <mxCell id="110" value="sexe" style="shape=partialRectangle;html=1;whiteSpace=wrap;connectable=0;overflow=hidden;fillColor=none;top=0;left=0;bottom=0;right=0;pointerEvents=1;fontFamily=Helvetica;fontSize=12;fontColor=default;" parent="109" vertex="1">
                    <mxGeometry width="158" height="40" as="geometry">
                        <mxRectangle width="158" height="40" as="alternateBounds"/>
                    </mxGeometry>
                </mxCell>
                <mxCell id="158" value="" style="shape=partialRectangle;collapsible=0;dropTarget=0;pointerEvents=0;fillColor=none;top=0;left=0;bottom=0;right=0;points=[[0,0.5],[1,0.5]];portConstraint=eastwest;fontFamily=Helvetica;fontSize=12;fontColor=default;" parent="59" vertex="1">
                    <mxGeometry y="230" width="157.5911102294922" height="40" as="geometry"/>
                </mxCell>
                <mxCell id="159" value="date_naissance" style="shape=partialRectangle;html=1;whiteSpace=wrap;connectable=0;overflow=hidden;fillColor=none;top=0;left=0;bottom=0;right=0;pointerEvents=1;fontFamily=Helvetica;fontSize=12;fontColor=default;" parent="158" vertex="1">
                    <mxGeometry width="158" height="40" as="geometry">
                        <mxRectangle width="158" height="40" as="alternateBounds"/>
                    </mxGeometry>
                </mxCell>
                <mxCell id="66" value="" style="shape=partialRectangle;collapsible=0;dropTarget=0;pointerEvents=0;fillColor=none;top=0;left=0;bottom=0;right=0;points=[[0,0.5],[1,0.5]];portConstraint=eastwest;fontFamily=Helvetica;fontSize=12;fontColor=default;" parent="59" vertex="1">
                    <mxGeometry y="270" width="157.5911102294922" height="40" as="geometry"/>
                </mxCell>
                <mxCell id="67" value="email" style="shape=partialRectangle;html=1;whiteSpace=wrap;connectable=0;overflow=hidden;fillColor=none;top=0;left=0;bottom=0;right=0;pointerEvents=1;fontFamily=Helvetica;fontSize=12;fontColor=default;" parent="66" vertex="1">
                    <mxGeometry width="158" height="40" as="geometry">
                        <mxRectangle width="158" height="40" as="alternateBounds"/>
                    </mxGeometry>
                </mxCell>
                <mxCell id="213" value="" style="shape=partialRectangle;collapsible=0;dropTarget=0;pointerEvents=0;fillColor=none;top=0;left=0;bottom=0;right=0;points=[[0,0.5],[1,0.5]];portConstraint=eastwest;fontFamily=Helvetica;fontSize=12;fontColor=default;" parent="59" vertex="1">
                    <mxGeometry y="310" width="157.5911102294922" height="40" as="geometry"/>
                </mxCell>
                <mxCell id="214" value="ville" style="shape=partialRectangle;html=1;whiteSpace=wrap;connectable=0;overflow=hidden;fillColor=none;top=0;left=0;bottom=0;right=0;pointerEvents=1;fontFamily=Helvetica;fontSize=12;fontColor=default;" parent="213" vertex="1">
                    <mxGeometry width="158" height="40" as="geometry">
                        <mxRectangle width="158" height="40" as="alternateBounds"/>
                    </mxGeometry>
                </mxCell>
                <mxCell id="81" value="" style="shape=partialRectangle;collapsible=0;dropTarget=0;pointerEvents=0;fillColor=none;top=0;left=0;bottom=0;right=0;points=[[0,0.5],[1,0.5]];portConstraint=eastwest;fontFamily=Helvetica;fontSize=12;fontColor=default;" parent="59" vertex="1">
                    <mxGeometry y="350" width="157.5911102294922" height="40" as="geometry"/>
                </mxCell>
                <mxCell id="82" value="adresse" style="shape=partialRectangle;html=1;whiteSpace=wrap;connectable=0;overflow=hidden;fillColor=none;top=0;left=0;bottom=0;right=0;pointerEvents=1;fontFamily=Helvetica;fontSize=12;fontColor=default;" parent="81" vertex="1">
                    <mxGeometry width="158" height="40" as="geometry">
                        <mxRectangle width="158" height="40" as="alternateBounds"/>
                    </mxGeometry>
                </mxCell>
                <mxCell id="77" value="" style="shape=partialRectangle;collapsible=0;dropTarget=0;pointerEvents=0;fillColor=none;top=0;left=0;bottom=0;right=0;points=[[0,0.5],[1,0.5]];portConstraint=eastwest;fontFamily=Helvetica;fontSize=12;fontColor=default;" parent="59" vertex="1">
                    <mxGeometry y="390" width="157.5911102294922" height="40" as="geometry"/>
                </mxCell>
                <mxCell id="78" value="telephone" style="shape=partialRectangle;html=1;whiteSpace=wrap;connectable=0;overflow=hidden;fillColor=none;top=0;left=0;bottom=0;right=0;pointerEvents=1;fontFamily=Helvetica;fontSize=12;fontColor=default;" parent="77" vertex="1">
                    <mxGeometry width="158" height="40" as="geometry">
                        <mxRectangle width="158" height="40" as="alternateBounds"/>
                    </mxGeometry>
                </mxCell>
                <mxCell id="152" value="" style="shape=partialRectangle;collapsible=0;dropTarget=0;pointerEvents=0;fillColor=none;top=0;left=0;bottom=0;right=0;points=[[0,0.5],[1,0.5]];portConstraint=eastwest;fontFamily=Helvetica;fontSize=12;fontColor=default;" parent="59" vertex="1">
                    <mxGeometry y="430" width="157.5911102294922" height="40" as="geometry"/>
                </mxCell>
                <mxCell id="153" value="niveau_etude" style="shape=partialRectangle;html=1;whiteSpace=wrap;connectable=0;overflow=hidden;fillColor=none;top=0;left=0;bottom=0;right=0;pointerEvents=1;fontFamily=Helvetica;fontSize=12;fontColor=default;" parent="152" vertex="1">
                    <mxGeometry width="158" height="40" as="geometry">
                        <mxRectangle width="158" height="40" as="alternateBounds"/>
                    </mxGeometry>
                </mxCell>
                <mxCell id="79" value="" style="shape=partialRectangle;collapsible=0;dropTarget=0;pointerEvents=0;fillColor=none;top=0;left=0;bottom=0;right=0;points=[[0,0.5],[1,0.5]];portConstraint=eastwest;fontFamily=Helvetica;fontSize=12;fontColor=default;" parent="59" vertex="1">
                    <mxGeometry y="470" width="157.5911102294922" height="40" as="geometry"/>
                </mxCell>
                <mxCell id="80" value="numero_cnib" style="shape=partialRectangle;html=1;whiteSpace=wrap;connectable=0;overflow=hidden;fillColor=none;top=0;left=0;bottom=0;right=0;pointerEvents=1;fontFamily=Helvetica;fontSize=12;fontColor=default;" parent="79" vertex="1">
                    <mxGeometry width="158" height="40" as="geometry">
                        <mxRectangle width="158" height="40" as="alternateBounds"/>
                    </mxGeometry>
                </mxCell>
                <mxCell id="98" value="" style="shape=partialRectangle;collapsible=0;dropTarget=0;pointerEvents=0;fillColor=none;top=0;left=0;bottom=0;right=0;points=[[0,0.5],[1,0.5]];portConstraint=eastwest;fontFamily=Helvetica;fontSize=12;fontColor=default;" parent="59" vertex="1">
                    <mxGeometry y="510" width="157.5911102294922" height="40" as="geometry"/>
                </mxCell>
                <mxCell id="99" value="id_formation" style="shape=partialRectangle;html=1;whiteSpace=wrap;connectable=0;overflow=hidden;fillColor=#d80073;top=0;left=0;bottom=0;right=0;pointerEvents=1;fontFamily=Helvetica;fontSize=12;fontColor=#ffffff;strokeColor=#A50040;" parent="98" vertex="1">
                    <mxGeometry width="158" height="40" as="geometry">
                        <mxRectangle width="158" height="40" as="alternateBounds"/>
                    </mxGeometry>
                </mxCell>
                <mxCell id="68" value="utilisateur" style="shape=table;startSize=30;container=1;collapsible=0;childLayout=tableLayout;fontFamily=Helvetica;fontSize=12;fontColor=#ffffff;fillColor=#0050ef;strokeColor=#001DBC;" parent="1" vertex="1">
                    <mxGeometry x="490" y="35" width="128" height="270" as="geometry"/>
                </mxCell>
                <mxCell id="93" value="" style="shape=partialRectangle;collapsible=0;dropTarget=0;pointerEvents=0;fillColor=none;top=0;left=0;bottom=0;right=0;points=[[0,0.5],[1,0.5]];portConstraint=eastwest;fontFamily=Helvetica;fontSize=12;fontColor=default;" parent="68" vertex="1">
                    <mxGeometry y="30" width="128" height="40" as="geometry"/>
                </mxCell>
                <mxCell id="94" value="id" style="shape=partialRectangle;html=1;whiteSpace=wrap;connectable=0;overflow=hidden;fillColor=none;top=0;left=0;bottom=0;right=0;pointerEvents=1;fontFamily=Helvetica;fontSize=12;fontColor=default;" parent="93" vertex="1">
                    <mxGeometry width="128" height="40" as="geometry">
                        <mxRectangle width="128" height="40" as="alternateBounds"/>
                    </mxGeometry>
                </mxCell>
                <mxCell id="73" value="" style="shape=partialRectangle;collapsible=0;dropTarget=0;pointerEvents=0;fillColor=none;top=0;left=0;bottom=0;right=0;points=[[0,0.5],[1,0.5]];portConstraint=eastwest;fontFamily=Helvetica;fontSize=12;fontColor=default;" parent="68" vertex="1">
                    <mxGeometry y="70" width="128" height="40" as="geometry"/>
                </mxCell>
                <mxCell id="74" value="uuid" style="shape=partialRectangle;html=1;whiteSpace=wrap;connectable=0;overflow=hidden;fillColor=none;top=0;left=0;bottom=0;right=0;pointerEvents=1;fontFamily=Helvetica;fontSize=12;fontColor=default;" parent="73" vertex="1">
                    <mxGeometry width="128" height="40" as="geometry">
                        <mxRectangle width="128" height="40" as="alternateBounds"/>
                    </mxGeometry>
                </mxCell>
                <mxCell id="69" value="" style="shape=partialRectangle;collapsible=0;dropTarget=0;pointerEvents=0;fillColor=none;top=0;left=0;bottom=0;right=0;points=[[0,0.5],[1,0.5]];portConstraint=eastwest;fontFamily=Helvetica;fontSize=12;fontColor=default;" parent="68" vertex="1">
                    <mxGeometry y="110" width="128" height="40" as="geometry"/>
                </mxCell>
                <mxCell id="70" value="nom&amp;nbsp;" style="shape=partialRectangle;html=1;whiteSpace=wrap;connectable=0;overflow=hidden;fillColor=none;top=0;left=0;bottom=0;right=0;pointerEvents=1;fontFamily=Helvetica;fontSize=12;fontColor=default;" parent="69" vertex="1">
                    <mxGeometry width="128" height="40" as="geometry">
                        <mxRectangle width="128" height="40" as="alternateBounds"/>
                    </mxGeometry>
                </mxCell>
                <mxCell id="71" value="" style="shape=partialRectangle;collapsible=0;dropTarget=0;pointerEvents=0;fillColor=none;top=0;left=0;bottom=0;right=0;points=[[0,0.5],[1,0.5]];portConstraint=eastwest;fontFamily=Helvetica;fontSize=12;fontColor=default;" parent="68" vertex="1">
                    <mxGeometry y="150" width="128" height="40" as="geometry"/>
                </mxCell>
                <mxCell id="72" value="prenom" style="shape=partialRectangle;html=1;whiteSpace=wrap;connectable=0;overflow=hidden;fillColor=none;top=0;left=0;bottom=0;right=0;pointerEvents=1;fontFamily=Helvetica;fontSize=12;fontColor=default;" parent="71" vertex="1">
                    <mxGeometry width="128" height="40" as="geometry">
                        <mxRectangle width="128" height="40" as="alternateBounds"/>
                    </mxGeometry>
                </mxCell>
                <mxCell id="75" value="" style="shape=partialRectangle;collapsible=0;dropTarget=0;pointerEvents=0;fillColor=none;top=0;left=0;bottom=0;right=0;points=[[0,0.5],[1,0.5]];portConstraint=eastwest;fontFamily=Helvetica;fontSize=12;fontColor=default;" parent="68" vertex="1">
                    <mxGeometry y="190" width="128" height="40" as="geometry"/>
                </mxCell>
                <mxCell id="76" value="email" style="shape=partialRectangle;html=1;whiteSpace=wrap;connectable=0;overflow=hidden;fillColor=none;top=0;left=0;bottom=0;right=0;pointerEvents=1;fontFamily=Helvetica;fontSize=12;fontColor=default;" parent="75" vertex="1">
                    <mxGeometry width="128" height="40" as="geometry">
                        <mxRectangle width="128" height="40" as="alternateBounds"/>
                    </mxGeometry>
                </mxCell>
                <mxCell id="91" value="" style="shape=partialRectangle;collapsible=0;dropTarget=0;pointerEvents=0;fillColor=none;top=0;left=0;bottom=0;right=0;points=[[0,0.5],[1,0.5]];portConstraint=eastwest;fontFamily=Helvetica;fontSize=12;fontColor=default;" parent="68" vertex="1">
                    <mxGeometry y="230" width="128" height="40" as="geometry"/>
                </mxCell>
                <mxCell id="92" value="mot_de_passe" style="shape=partialRectangle;html=1;whiteSpace=wrap;connectable=0;overflow=hidden;fillColor=none;top=0;left=0;bottom=0;right=0;pointerEvents=1;fontFamily=Helvetica;fontSize=12;fontColor=default;" parent="91" vertex="1">
                    <mxGeometry width="128" height="40" as="geometry">
                        <mxRectangle width="128" height="40" as="alternateBounds"/>
                    </mxGeometry>
                </mxCell>
                <mxCell id="100" value="formation" style="shape=table;startSize=30;container=1;collapsible=0;childLayout=tableLayout;fontFamily=Helvetica;fontSize=12;fontColor=#ffffff;fillColor=#0050ef;strokeColor=#001DBC;" parent="1" vertex="1">
                    <mxGeometry x="705" y="35" width="133.43995666503906" height="190" as="geometry"/>
                </mxCell>
                <mxCell id="101" value="" style="shape=partialRectangle;collapsible=0;dropTarget=0;pointerEvents=0;fillColor=none;top=0;left=0;bottom=0;right=0;points=[[0,0.5],[1,0.5]];portConstraint=eastwest;fontFamily=Helvetica;fontSize=12;fontColor=default;" parent="100" vertex="1">
                    <mxGeometry y="30" width="133.43995666503906" height="40" as="geometry"/>
                </mxCell>
                <mxCell id="102" value="id" style="shape=partialRectangle;html=1;whiteSpace=wrap;connectable=0;overflow=hidden;fillColor=#d80073;top=0;left=0;bottom=0;right=0;pointerEvents=1;fontFamily=Helvetica;fontSize=12;fontColor=#ffffff;strokeColor=#A50040;" parent="101" vertex="1">
                    <mxGeometry width="133" height="40" as="geometry">
                        <mxRectangle width="133" height="40" as="alternateBounds"/>
                    </mxGeometry>
                </mxCell>
                <mxCell id="103" value="" style="shape=partialRectangle;collapsible=0;dropTarget=0;pointerEvents=0;fillColor=none;top=0;left=0;bottom=0;right=0;points=[[0,0.5],[1,0.5]];portConstraint=eastwest;fontFamily=Helvetica;fontSize=12;fontColor=default;" parent="100" vertex="1">
                    <mxGeometry y="70" width="133.43995666503906" height="40" as="geometry"/>
                </mxCell>
                <mxCell id="104" value="libelle" style="shape=partialRectangle;html=1;whiteSpace=wrap;connectable=0;overflow=hidden;fillColor=none;top=0;left=0;bottom=0;right=0;pointerEvents=1;fontFamily=Helvetica;fontSize=12;fontColor=default;" parent="103" vertex="1">
                    <mxGeometry width="133" height="40" as="geometry">
                        <mxRectangle width="133" height="40" as="alternateBounds"/>
                    </mxGeometry>
                </mxCell>
                <mxCell id="178" value="" style="shape=partialRectangle;collapsible=0;dropTarget=0;pointerEvents=0;fillColor=none;top=0;left=0;bottom=0;right=0;points=[[0,0.5],[1,0.5]];portConstraint=eastwest;fontFamily=Helvetica;fontSize=12;fontColor=default;" parent="100" vertex="1">
                    <mxGeometry y="110" width="133.43995666503906" height="40" as="geometry"/>
                </mxCell>
                <mxCell id="179" value="description" style="shape=partialRectangle;html=1;whiteSpace=wrap;connectable=0;overflow=hidden;fillColor=none;top=0;left=0;bottom=0;right=0;pointerEvents=1;fontFamily=Helvetica;fontSize=12;fontColor=default;" parent="178" vertex="1">
                    <mxGeometry width="133" height="40" as="geometry">
                        <mxRectangle width="133" height="40" as="alternateBounds"/>
                    </mxGeometry>
                </mxCell>
                <mxCell id="169" value="" style="shape=partialRectangle;collapsible=0;dropTarget=0;pointerEvents=0;fillColor=none;top=0;left=0;bottom=0;right=0;points=[[0,0.5],[1,0.5]];portConstraint=eastwest;fontFamily=Helvetica;fontSize=12;fontColor=default;" parent="100" vertex="1">
                    <mxGeometry y="150" width="133.43995666503906" height="40" as="geometry"/>
                </mxCell>
                <mxCell id="170" value="id_programme" style="shape=partialRectangle;html=1;whiteSpace=wrap;connectable=0;overflow=hidden;fillColor=#a20025;top=0;left=0;bottom=0;right=0;pointerEvents=1;fontFamily=Helvetica;fontSize=12;fontColor=#ffffff;strokeColor=#6F0000;" parent="169" vertex="1">
                    <mxGeometry width="133" height="40" as="geometry">
                        <mxRectangle width="133" height="40" as="alternateBounds"/>
                    </mxGeometry>
                </mxCell>
                <mxCell id="124" value="formateur" style="shape=table;startSize=30;container=1;collapsible=0;childLayout=tableLayout;fontFamily=Helvetica;fontSize=12;fontColor=#ffffff;fillColor=#0050ef;strokeColor=#001DBC;" parent="1" vertex="1">
                    <mxGeometry x="69" y="35" width="135.5911102294922" height="343.26" as="geometry"/>
                </mxCell>
                <mxCell id="125" value="" style="shape=partialRectangle;collapsible=0;dropTarget=0;pointerEvents=0;fillColor=none;top=0;left=0;bottom=0;right=0;points=[[0,0.5],[1,0.5]];portConstraint=eastwest;fontFamily=Helvetica;fontSize=12;fontColor=default;" parent="124" vertex="1">
                    <mxGeometry y="30" width="135.5911102294922" height="33" as="geometry"/>
                </mxCell>
                <mxCell id="126" value="id" style="shape=partialRectangle;html=1;whiteSpace=wrap;connectable=0;overflow=hidden;fillColor=none;top=0;left=0;bottom=0;right=0;pointerEvents=1;fontFamily=Helvetica;fontSize=12;fontColor=default;" parent="125" vertex="1">
                    <mxGeometry width="136" height="33" as="geometry">
                        <mxRectangle width="136" height="33" as="alternateBounds"/>
                    </mxGeometry>
                </mxCell>
                <mxCell id="127" value="" style="shape=partialRectangle;collapsible=0;dropTarget=0;pointerEvents=0;fillColor=none;top=0;left=0;bottom=0;right=0;points=[[0,0.5],[1,0.5]];portConstraint=eastwest;fontFamily=Helvetica;fontSize=12;fontColor=default;" parent="124" vertex="1">
                    <mxGeometry y="63" width="135.5911102294922" height="40" as="geometry"/>
                </mxCell>
                <mxCell id="128" value="uuid" style="shape=partialRectangle;html=1;whiteSpace=wrap;connectable=0;overflow=hidden;fillColor=none;top=0;left=0;bottom=0;right=0;pointerEvents=1;fontFamily=Helvetica;fontSize=12;fontColor=default;" parent="127" vertex="1">
                    <mxGeometry width="136" height="40" as="geometry">
                        <mxRectangle width="136" height="40" as="alternateBounds"/>
                    </mxGeometry>
                </mxCell>
                <mxCell id="129" value="" style="shape=partialRectangle;collapsible=0;dropTarget=0;pointerEvents=0;fillColor=none;top=0;left=0;bottom=0;right=0;points=[[0,0.5],[1,0.5]];portConstraint=eastwest;fontFamily=Helvetica;fontSize=12;fontColor=default;" parent="124" vertex="1">
                    <mxGeometry y="103" width="135.5911102294922" height="40" as="geometry"/>
                </mxCell>
                <mxCell id="130" value="nom" style="shape=partialRectangle;html=1;whiteSpace=wrap;connectable=0;overflow=hidden;fillColor=none;top=0;left=0;bottom=0;right=0;pointerEvents=1;fontFamily=Helvetica;fontSize=12;fontColor=default;" parent="129" vertex="1">
                    <mxGeometry width="136" height="40" as="geometry">
                        <mxRectangle width="136" height="40" as="alternateBounds"/>
                    </mxGeometry>
                </mxCell>
                <mxCell id="131" value="" style="shape=partialRectangle;collapsible=0;dropTarget=0;pointerEvents=0;fillColor=none;top=0;left=0;bottom=0;right=0;points=[[0,0.5],[1,0.5]];portConstraint=eastwest;fontFamily=Helvetica;fontSize=12;fontColor=default;" parent="124" vertex="1">
                    <mxGeometry y="143" width="135.5911102294922" height="40" as="geometry"/>
                </mxCell>
                <mxCell id="132" value="prenom" style="shape=partialRectangle;html=1;whiteSpace=wrap;connectable=0;overflow=hidden;fillColor=none;top=0;left=0;bottom=0;right=0;pointerEvents=1;fontFamily=Helvetica;fontSize=12;fontColor=default;" parent="131" vertex="1">
                    <mxGeometry width="136" height="40" as="geometry">
                        <mxRectangle width="136" height="40" as="alternateBounds"/>
                    </mxGeometry>
                </mxCell>
                <mxCell id="135" value="" style="shape=partialRectangle;collapsible=0;dropTarget=0;pointerEvents=0;fillColor=none;top=0;left=0;bottom=0;right=0;points=[[0,0.5],[1,0.5]];portConstraint=eastwest;fontFamily=Helvetica;fontSize=12;fontColor=default;" parent="124" vertex="1">
                    <mxGeometry y="183" width="135.5911102294922" height="40" as="geometry"/>
                </mxCell>
                <mxCell id="136" value="email" style="shape=partialRectangle;html=1;whiteSpace=wrap;connectable=0;overflow=hidden;fillColor=none;top=0;left=0;bottom=0;right=0;pointerEvents=1;fontFamily=Helvetica;fontSize=12;fontColor=default;" parent="135" vertex="1">
                    <mxGeometry width="136" height="40" as="geometry">
                        <mxRectangle width="136" height="40" as="alternateBounds"/>
                    </mxGeometry>
                </mxCell>
                <mxCell id="154" value="" style="shape=partialRectangle;collapsible=0;dropTarget=0;pointerEvents=0;fillColor=none;top=0;left=0;bottom=0;right=0;points=[[0,0.5],[1,0.5]];portConstraint=eastwest;fontFamily=Helvetica;fontSize=12;fontColor=default;" parent="124" vertex="1">
                    <mxGeometry y="223" width="135.5911102294922" height="40" as="geometry"/>
                </mxCell>
                <mxCell id="155" value="telephone" style="shape=partialRectangle;html=1;whiteSpace=wrap;connectable=0;overflow=hidden;fillColor=none;top=0;left=0;bottom=0;right=0;pointerEvents=1;fontFamily=Helvetica;fontSize=12;fontColor=default;" parent="154" vertex="1">
                    <mxGeometry width="136" height="40" as="geometry">
                        <mxRectangle width="136" height="40" as="alternateBounds"/>
                    </mxGeometry>
                </mxCell>
                <mxCell id="156" value="" style="shape=partialRectangle;collapsible=0;dropTarget=0;pointerEvents=0;fillColor=none;top=0;left=0;bottom=0;right=0;points=[[0,0.5],[1,0.5]];portConstraint=eastwest;fontFamily=Helvetica;fontSize=12;fontColor=default;" parent="124" vertex="1">
                    <mxGeometry y="263" width="135.5911102294922" height="40" as="geometry"/>
                </mxCell>
                <mxCell id="157" value="adresse" style="shape=partialRectangle;html=1;whiteSpace=wrap;connectable=0;overflow=hidden;fillColor=none;top=0;left=0;bottom=0;right=0;pointerEvents=1;fontFamily=Helvetica;fontSize=12;fontColor=default;" parent="156" vertex="1">
                    <mxGeometry width="136" height="40" as="geometry">
                        <mxRectangle width="136" height="40" as="alternateBounds"/>
                    </mxGeometry>
                </mxCell>
                <mxCell id="141" value="" style="shape=partialRectangle;collapsible=0;dropTarget=0;pointerEvents=0;fillColor=none;top=0;left=0;bottom=0;right=0;points=[[0,0.5],[1,0.5]];portConstraint=eastwest;fontFamily=Helvetica;fontSize=12;fontColor=default;" parent="124" vertex="1">
                    <mxGeometry y="303" width="135.5911102294922" height="40" as="geometry"/>
                </mxCell>
                <mxCell id="142" value="id_formation" style="shape=partialRectangle;html=1;whiteSpace=wrap;connectable=0;overflow=hidden;fillColor=#d80073;top=0;left=0;bottom=0;right=0;pointerEvents=1;fontFamily=Helvetica;fontSize=12;fontColor=#ffffff;strokeColor=#A50040;" parent="141" vertex="1">
                    <mxGeometry width="136" height="40" as="geometry">
                        <mxRectangle width="136" height="40" as="alternateBounds"/>
                    </mxGeometry>
                </mxCell>
                <mxCell id="143" value="transaction" style="shape=table;startSize=30;container=1;collapsible=0;childLayout=tableLayout;fontFamily=Helvetica;fontSize=12;fontColor=#ffffff;fillColor=#0050ef;strokeColor=#001DBC;" parent="1" vertex="1">
                    <mxGeometry x="496.5" y="322" width="115" height="190" as="geometry"/>
                </mxCell>
                <mxCell id="144" value="" style="shape=partialRectangle;collapsible=0;dropTarget=0;pointerEvents=0;fillColor=none;top=0;left=0;bottom=0;right=0;points=[[0,0.5],[1,0.5]];portConstraint=eastwest;fontFamily=Helvetica;fontSize=12;fontColor=default;" parent="143" vertex="1">
                    <mxGeometry y="30" width="115" height="40" as="geometry"/>
                </mxCell>
                <mxCell id="145" value="id" style="shape=partialRectangle;html=1;whiteSpace=wrap;connectable=0;overflow=hidden;fillColor=none;top=0;left=0;bottom=0;right=0;pointerEvents=1;fontFamily=Helvetica;fontSize=12;fontColor=default;" parent="144" vertex="1">
                    <mxGeometry width="115" height="40" as="geometry">
                        <mxRectangle width="115" height="40" as="alternateBounds"/>
                    </mxGeometry>
                </mxCell>
                <mxCell id="146" value="" style="shape=partialRectangle;collapsible=0;dropTarget=0;pointerEvents=0;fillColor=none;top=0;left=0;bottom=0;right=0;points=[[0,0.5],[1,0.5]];portConstraint=eastwest;fontFamily=Helvetica;fontSize=12;fontColor=default;" parent="143" vertex="1">
                    <mxGeometry y="70" width="115" height="40" as="geometry"/>
                </mxCell>
                <mxCell id="147" value="uuid" style="shape=partialRectangle;html=1;whiteSpace=wrap;connectable=0;overflow=hidden;fillColor=none;top=0;left=0;bottom=0;right=0;pointerEvents=1;fontFamily=Helvetica;fontSize=12;fontColor=default;" parent="146" vertex="1">
                    <mxGeometry width="115" height="40" as="geometry">
                        <mxRectangle width="115" height="40" as="alternateBounds"/>
                    </mxGeometry>
                </mxCell>
                <mxCell id="148" value="" style="shape=partialRectangle;collapsible=0;dropTarget=0;pointerEvents=0;fillColor=none;top=0;left=0;bottom=0;right=0;points=[[0,0.5],[1,0.5]];portConstraint=eastwest;fontFamily=Helvetica;fontSize=12;fontColor=default;" parent="143" vertex="1">
                    <mxGeometry y="110" width="115" height="40" as="geometry"/>
                </mxCell>
                <mxCell id="149" value="montant" style="shape=partialRectangle;html=1;whiteSpace=wrap;connectable=0;overflow=hidden;fillColor=none;top=0;left=0;bottom=0;right=0;pointerEvents=1;fontFamily=Helvetica;fontSize=12;fontColor=default;" parent="148" vertex="1">
                    <mxGeometry width="115" height="40" as="geometry">
                        <mxRectangle width="115" height="40" as="alternateBounds"/>
                    </mxGeometry>
                </mxCell>
                <mxCell id="150" value="" style="shape=partialRectangle;collapsible=0;dropTarget=0;pointerEvents=0;fillColor=#e51400;top=0;left=0;bottom=0;right=0;points=[[0,0.5],[1,0.5]];portConstraint=eastwest;fontFamily=Helvetica;fontSize=12;fontColor=#ffffff;strokeColor=#B20000;" parent="143" vertex="1">
                    <mxGeometry y="150" width="115" height="40" as="geometry"/>
                </mxCell>
                <mxCell id="151" value="id_apprenant" style="shape=partialRectangle;html=1;whiteSpace=wrap;connectable=0;overflow=hidden;fillColor=none;top=0;left=0;bottom=0;right=0;pointerEvents=1;fontFamily=Helvetica;fontSize=12;fontColor=default;" parent="150" vertex="1">
                    <mxGeometry width="115" height="40" as="geometry">
                        <mxRectangle width="115" height="40" as="alternateBounds"/>
                    </mxGeometry>
                </mxCell>
                <mxCell id="160" value="programme" style="shape=table;startSize=30;container=1;collapsible=0;childLayout=tableLayout;fontFamily=Helvetica;fontSize=12;fontColor=#ffffff;fillColor=#0050ef;strokeColor=#001DBC;" parent="1" vertex="1">
                    <mxGeometry x="692" y="253" width="151.01553344726562" height="229.9270477294922" as="geometry"/>
                </mxCell>
                <mxCell id="161" value="" style="shape=partialRectangle;collapsible=0;dropTarget=0;pointerEvents=0;fillColor=none;top=0;left=0;bottom=0;right=0;points=[[0,0.5],[1,0.5]];portConstraint=eastwest;fontFamily=Helvetica;fontSize=12;fontColor=default;" parent="160" vertex="1">
                    <mxGeometry y="30" width="151.01553344726562" height="40" as="geometry"/>
                </mxCell>
                <mxCell id="162" value="id" style="shape=partialRectangle;html=1;whiteSpace=wrap;connectable=0;overflow=hidden;fillColor=#a20025;top=0;left=0;bottom=0;right=0;pointerEvents=1;fontFamily=Helvetica;fontSize=12;fontColor=#ffffff;strokeColor=#6F0000;" parent="161" vertex="1">
                    <mxGeometry width="151" height="40" as="geometry">
                        <mxRectangle width="151" height="40" as="alternateBounds"/>
                    </mxGeometry>
                </mxCell>
                <mxCell id="163" value="" style="shape=partialRectangle;collapsible=0;dropTarget=0;pointerEvents=0;fillColor=none;top=0;left=0;bottom=0;right=0;points=[[0,0.5],[1,0.5]];portConstraint=eastwest;fontFamily=Helvetica;fontSize=12;fontColor=default;" parent="160" vertex="1">
                    <mxGeometry y="70" width="151.01553344726562" height="40" as="geometry"/>
                </mxCell>
                <mxCell id="164" value="titre" style="shape=partialRectangle;html=1;whiteSpace=wrap;connectable=0;overflow=hidden;fillColor=none;top=0;left=0;bottom=0;right=0;pointerEvents=1;fontFamily=Helvetica;fontSize=12;fontColor=default;" parent="163" vertex="1">
                    <mxGeometry width="151" height="40" as="geometry">
                        <mxRectangle width="151" height="40" as="alternateBounds"/>
                    </mxGeometry>
                </mxCell>
                <mxCell id="167" value="" style="shape=partialRectangle;collapsible=0;dropTarget=0;pointerEvents=0;fillColor=none;top=0;left=0;bottom=0;right=0;points=[[0,0.5],[1,0.5]];portConstraint=eastwest;fontFamily=Helvetica;fontSize=12;fontColor=default;" parent="160" vertex="1">
                    <mxGeometry y="110" width="151.01553344726562" height="40" as="geometry"/>
                </mxCell>
                <mxCell id="168" value="module" style="shape=partialRectangle;html=1;whiteSpace=wrap;connectable=0;overflow=hidden;fillColor=none;top=0;left=0;bottom=0;right=0;pointerEvents=1;fontFamily=Helvetica;fontSize=12;fontColor=default;" parent="167" vertex="1">
                    <mxGeometry width="151" height="40" as="geometry">
                        <mxRectangle width="151" height="40" as="alternateBounds"/>
                    </mxGeometry>
                </mxCell>
                <mxCell id="105" value="" style="shape=partialRectangle;collapsible=0;dropTarget=0;pointerEvents=0;fillColor=none;top=0;left=0;bottom=0;right=0;points=[[0,0.5],[1,0.5]];portConstraint=eastwest;fontFamily=Helvetica;fontSize=12;fontColor=default;" parent="160" vertex="1">
                    <mxGeometry y="150" width="151.01553344726562" height="40" as="geometry"/>
                </mxCell>
                <mxCell id="106" value="nombre_apprenant" style="shape=partialRectangle;html=1;whiteSpace=wrap;connectable=0;overflow=hidden;fillColor=none;top=0;left=0;bottom=0;right=0;pointerEvents=1;fontFamily=Helvetica;fontSize=12;fontColor=default;" parent="105" vertex="1">
                    <mxGeometry width="151" height="40" as="geometry">
                        <mxRectangle width="151" height="40" as="alternateBounds"/>
                    </mxGeometry>
                </mxCell>
                <mxCell id="210" value="" style="shape=partialRectangle;collapsible=0;dropTarget=0;pointerEvents=0;fillColor=none;top=0;left=0;bottom=0;right=0;points=[[0,0.5],[1,0.5]];portConstraint=eastwest;fontFamily=Helvetica;fontSize=12;fontColor=default;" parent="160" vertex="1">
                    <mxGeometry y="190" width="151.01553344726562" height="40" as="geometry"/>
                </mxCell>
                <mxCell id="211" value="promotion" style="shape=partialRectangle;html=1;whiteSpace=wrap;connectable=0;overflow=hidden;fillColor=none;top=0;left=0;bottom=0;right=0;pointerEvents=1;fontFamily=Helvetica;fontSize=12;fontColor=default;" parent="210" vertex="1">
                    <mxGeometry width="151" height="40" as="geometry">
                        <mxRectangle width="151" height="40" as="alternateBounds"/>
                    </mxGeometry>
                </mxCell>
                <mxCell id="180" value="module" style="shape=table;startSize=30;container=1;collapsible=0;childLayout=tableLayout;fontFamily=Helvetica;fontSize=12;fontColor=#ffffff;fillColor=#0050ef;strokeColor=#001DBC;" parent="1" vertex="1">
                    <mxGeometry x="692" y="509" width="111.92442321777344" height="190" as="geometry"/>
                </mxCell>
                <mxCell id="181" value="" style="shape=partialRectangle;collapsible=0;dropTarget=0;pointerEvents=0;fillColor=none;top=0;left=0;bottom=0;right=0;points=[[0,0.5],[1,0.5]];portConstraint=eastwest;fontFamily=Helvetica;fontSize=12;fontColor=default;" parent="180" vertex="1">
                    <mxGeometry y="30" width="111.92442321777344" height="40" as="geometry"/>
                </mxCell>
                <mxCell id="182" value="id" style="shape=partialRectangle;html=1;whiteSpace=wrap;connectable=0;overflow=hidden;fillColor=none;top=0;left=0;bottom=0;right=0;pointerEvents=1;fontFamily=Helvetica;fontSize=12;fontColor=default;" parent="181" vertex="1">
                    <mxGeometry width="112" height="40" as="geometry">
                        <mxRectangle width="112" height="40" as="alternateBounds"/>
                    </mxGeometry>
                </mxCell>
                <mxCell id="183" value="" style="shape=partialRectangle;collapsible=0;dropTarget=0;pointerEvents=0;fillColor=none;top=0;left=0;bottom=0;right=0;points=[[0,0.5],[1,0.5]];portConstraint=eastwest;fontFamily=Helvetica;fontSize=12;fontColor=default;" parent="180" vertex="1">
                    <mxGeometry y="70" width="111.92442321777344" height="40" as="geometry"/>
                </mxCell>
                <mxCell id="184" value="titre" style="shape=partialRectangle;html=1;whiteSpace=wrap;connectable=0;overflow=hidden;fillColor=none;top=0;left=0;bottom=0;right=0;pointerEvents=1;fontFamily=Helvetica;fontSize=12;fontColor=default;" parent="183" vertex="1">
                    <mxGeometry width="112" height="40" as="geometry">
                        <mxRectangle width="112" height="40" as="alternateBounds"/>
                    </mxGeometry>
                </mxCell>
                <mxCell id="185" value="" style="shape=partialRectangle;collapsible=0;dropTarget=0;pointerEvents=0;fillColor=none;top=0;left=0;bottom=0;right=0;points=[[0,0.5],[1,0.5]];portConstraint=eastwest;fontFamily=Helvetica;fontSize=12;fontColor=default;" parent="180" vertex="1">
                    <mxGeometry y="110" width="111.92442321777344" height="40" as="geometry"/>
                </mxCell>
                <mxCell id="186" value="description" style="shape=partialRectangle;html=1;whiteSpace=wrap;connectable=0;overflow=hidden;fillColor=none;top=0;left=0;bottom=0;right=0;pointerEvents=1;fontFamily=Helvetica;fontSize=12;fontColor=default;" parent="185" vertex="1">
                    <mxGeometry width="112" height="40" as="geometry">
                        <mxRectangle width="112" height="40" as="alternateBounds"/>
                    </mxGeometry>
                </mxCell>
                <mxCell id="187" value="" style="shape=partialRectangle;collapsible=0;dropTarget=0;pointerEvents=0;fillColor=none;top=0;left=0;bottom=0;right=0;points=[[0,0.5],[1,0.5]];portConstraint=eastwest;fontFamily=Helvetica;fontSize=12;fontColor=default;" parent="180" vertex="1">
                    <mxGeometry y="150" width="111.92442321777344" height="40" as="geometry"/>
                </mxCell>
                <mxCell id="188" value="id_formation" style="shape=partialRectangle;html=1;whiteSpace=wrap;connectable=0;overflow=hidden;fillColor=#d80073;top=0;left=0;bottom=0;right=0;pointerEvents=1;fontFamily=Helvetica;fontSize=12;fontColor=#ffffff;strokeColor=#A50040;" parent="187" vertex="1">
                    <mxGeometry width="112" height="40" as="geometry">
                        <mxRectangle width="112" height="40" as="alternateBounds"/>
                    </mxGeometry>
                </mxCell>
                <mxCell id="196" value="entreprise" style="shape=table;startSize=30;container=1;collapsible=0;childLayout=tableLayout;fontFamily=Helvetica;fontSize=12;fontColor=#ffffff;fillColor=#0050ef;strokeColor=#001DBC;" parent="1" vertex="1">
                    <mxGeometry x="75" y="395" width="96.09112548828125" height="150" as="geometry"/>
                </mxCell>
                <mxCell id="197" value="" style="shape=partialRectangle;collapsible=0;dropTarget=0;pointerEvents=0;fillColor=none;top=0;left=0;bottom=0;right=0;points=[[0,0.5],[1,0.5]];portConstraint=eastwest;fontFamily=Helvetica;fontSize=12;fontColor=default;" parent="196" vertex="1">
                    <mxGeometry y="30" width="96.09112548828125" height="40" as="geometry"/>
                </mxCell>
                <mxCell id="198" value="id" style="shape=partialRectangle;html=1;whiteSpace=wrap;connectable=0;overflow=hidden;fillColor=none;top=0;left=0;bottom=0;right=0;pointerEvents=1;fontFamily=Helvetica;fontSize=12;fontColor=default;" parent="197" vertex="1">
                    <mxGeometry width="96" height="40" as="geometry">
                        <mxRectangle width="96" height="40" as="alternateBounds"/>
                    </mxGeometry>
                </mxCell>
                <mxCell id="201" value="" style="shape=partialRectangle;collapsible=0;dropTarget=0;pointerEvents=0;fillColor=none;top=0;left=0;bottom=0;right=0;points=[[0,0.5],[1,0.5]];portConstraint=eastwest;fontFamily=Helvetica;fontSize=12;fontColor=default;" parent="196" vertex="1">
                    <mxGeometry y="70" width="96.09112548828125" height="40" as="geometry"/>
                </mxCell>
                <mxCell id="202" value="................." style="shape=partialRectangle;html=1;whiteSpace=wrap;connectable=0;overflow=hidden;fillColor=none;top=0;left=0;bottom=0;right=0;pointerEvents=1;fontFamily=Helvetica;fontSize=12;fontColor=default;" parent="201" vertex="1">
                    <mxGeometry width="96" height="40" as="geometry">
                        <mxRectangle width="96" height="40" as="alternateBounds"/>
                    </mxGeometry>
                </mxCell>
                <mxCell id="199" value="" style="shape=partialRectangle;collapsible=0;dropTarget=0;pointerEvents=0;fillColor=none;top=0;left=0;bottom=0;right=0;points=[[0,0.5],[1,0.5]];portConstraint=eastwest;fontFamily=Helvetica;fontSize=12;fontColor=default;" parent="196" vertex="1">
                    <mxGeometry y="110" width="96.09112548828125" height="40" as="geometry"/>
                </mxCell>
                <mxCell id="200" value="id_apprenant" style="shape=partialRectangle;html=1;whiteSpace=wrap;connectable=0;overflow=hidden;fillColor=#e51400;top=0;left=0;bottom=0;right=0;pointerEvents=1;fontFamily=Helvetica;fontSize=12;fontColor=#ffffff;strokeColor=#B20000;" parent="199" vertex="1">
                    <mxGeometry width="96" height="40" as="geometry">
                        <mxRectangle width="96" height="40" as="alternateBounds"/>
                    </mxGeometry>
                </mxCell>
                <mxCell id="203" value="seances" style="shape=table;startSize=30;container=1;collapsible=0;childLayout=tableLayout;fontFamily=Helvetica;fontSize=12;fontColor=#ffffff;fillColor=#0050ef;strokeColor=#001DBC;" parent="1" vertex="1">
                    <mxGeometry x="496.5" y="545" width="100.4244384765625" height="150" as="geometry"/>
                </mxCell>
                <mxCell id="204" value="" style="shape=partialRectangle;collapsible=0;dropTarget=0;pointerEvents=0;fillColor=none;top=0;left=0;bottom=0;right=0;points=[[0,0.5],[1,0.5]];portConstraint=eastwest;fontFamily=Helvetica;fontSize=12;fontColor=default;" parent="203" vertex="1">
                    <mxGeometry y="30" width="100.4244384765625" height="40" as="geometry"/>
                </mxCell>
                <mxCell id="205" value="id" style="shape=partialRectangle;html=1;whiteSpace=wrap;connectable=0;overflow=hidden;fillColor=none;top=0;left=0;bottom=0;right=0;pointerEvents=1;fontFamily=Helvetica;fontSize=12;fontColor=default;" parent="204" vertex="1">
                    <mxGeometry width="100" height="40" as="geometry">
                        <mxRectangle width="100" height="40" as="alternateBounds"/>
                    </mxGeometry>
                </mxCell>
                <mxCell id="206" value="" style="shape=partialRectangle;collapsible=0;dropTarget=0;pointerEvents=0;fillColor=none;top=0;left=0;bottom=0;right=0;points=[[0,0.5],[1,0.5]];portConstraint=eastwest;fontFamily=Helvetica;fontSize=12;fontColor=default;" parent="203" vertex="1">
                    <mxGeometry y="70" width="100.4244384765625" height="40" as="geometry"/>
                </mxCell>
                <mxCell id="207" value="horaire" style="shape=partialRectangle;html=1;whiteSpace=wrap;connectable=0;overflow=hidden;fillColor=none;top=0;left=0;bottom=0;right=0;pointerEvents=1;fontFamily=Helvetica;fontSize=12;fontColor=default;" parent="206" vertex="1">
                    <mxGeometry width="100" height="40" as="geometry">
                        <mxRectangle width="100" height="40" as="alternateBounds"/>
                    </mxGeometry>
                </mxCell>
                <mxCell id="208" value="" style="shape=partialRectangle;collapsible=0;dropTarget=0;pointerEvents=0;fillColor=none;top=0;left=0;bottom=0;right=0;points=[[0,0.5],[1,0.5]];portConstraint=eastwest;fontFamily=Helvetica;fontSize=12;fontColor=default;" parent="203" vertex="1">
                    <mxGeometry y="110" width="100.4244384765625" height="40" as="geometry"/>
                </mxCell>
                <mxCell id="209" value="id_programme" style="shape=partialRectangle;html=1;whiteSpace=wrap;connectable=0;overflow=hidden;fillColor=#a20025;top=0;left=0;bottom=0;right=0;pointerEvents=1;fontFamily=Helvetica;fontSize=12;fontColor=#ffffff;strokeColor=#6F0000;" parent="208" vertex="1">
                    <mxGeometry width="100" height="40" as="geometry">
                        <mxRectangle width="100" height="40" as="alternateBounds"/>
                    </mxGeometry>
                </mxCell>
                <mxCell id="215" value="/home/dimanche/Desktop/projet3.0/database/migrations/2022_09_15_152210_create_apprenants_table.php" style="text;whiteSpace=wrap;html=1;" vertex="1" parent="1">
                    <mxGeometry x="-23.497451782226562" y="-358.9973907470703" width="540" height="28" as="geometry"/>
                </mxCell>
            </root>
        </mxGraphModel>
    </diagram>
</mxfile>